<svg xmlns="http://www.w3.org/2000/svg" xmlns:xlink="http://www.w3.org/1999/xlink" xmlns:svgjs="http://svgjs.com/svgjs" class="animated" id="freepik_stories-secure-data" viewBox="0 0 500 500" version="1.1"><style>svg#freepik_stories-secure-data:not(.animated) .animable {opacity: 0;}svg#freepik_stories-secure-data.animated #freepik--Character--inject-202 {animation: 1.5s Infinite  linear wind;animation-delay: 0s;}svg#freepik_stories-secure-data.animated #freepik--Shield--inject-202 {animation: 1.5s Infinite  linear shake;animation-delay: 0s;}svg#freepik_stories-secure-data.animated #freepik--Letter--inject-202 {animation: 1.5s Infinite  linear floating;animation-delay: 0s;}svg#freepik_stories-secure-data.animated #freepik--Password--inject-202 {animation: 1.5s Infinite  linear heartbeat;animation-delay: 0s;}svg#freepik_stories-secure-data.animated #freepik--Plant--inject-202 {animation: 1.5s Infinite  linear wind;animation-delay: 0s;}            @keyframes wind {                0% {                    transform: rotate( 0deg );                }                25% {                    transform: rotate( 1deg );                }                75% {                    transform: rotate( -1deg );                }            }                    @keyframes shake {                10%, 90% {                    transform: translate3d(-1px, 0, 0);                  }                  20%, 80% {                    transform: translate3d(2px, 0, 0);                  }                  30%, 50%, 70% {                    transform: translate3d(-4px, 0, 0);                  }                  40%, 60% {                    transform: translate3d(4px, 0, 0);                  }            }                    @keyframes floating {                0% {                    opacity: 1;                    transform: translateY(0px);                }                50% {                    transform: translateY(-10px);                }                100% {                    opacity: 1;                    transform: translateY(0px);                }            }                    @keyframes heartbeat {                0% {                    transform: scale(1);                }                10% {                    transform: scale(1.1);                }                30% {                    transform: scale(1);                }                40% {                    transform: scale(1);                }                50% {                    transform: scale(1.1);                }                60% {                    transform: scale(1);                }                100% {                    transform: scale(1);                }            }        .animator-hidden { display: none; }</style><g id="freepik--background-complete--inject-202" class="animable" style="transform-origin: 219.474px 237.76px;"><rect x="246.88" y="175.94" width="0.3" height="3.25" style="fill: rgb(199, 199, 199); transform-origin: 247.03px 177.565px;" id="elu1ueysuyfql" class="animable"/><rect x="245.4" y="177.42" width="3.25" height="0.3" style="fill: rgb(199, 199, 199); transform-origin: 247.025px 177.57px;" id="el5z1ooz18xxk" class="animable"/><g id="elgtiq0g1vz4"><rect x="245.4" y="177.42" width="3.26" height="0.3" style="fill: rgb(199, 199, 199); transform-origin: 247.03px 177.57px; transform: rotate(-45deg);" class="animable" id="el51rhkopqqlh"/></g><g id="elruuwmmopft8"><rect x="246.88" y="175.94" width="0.3" height="3.26" style="fill: rgb(199, 199, 199); transform-origin: 247.03px 177.57px; transform: rotate(-45deg);" class="animable" id="elk97ne0kdaos"/></g><rect x="250.79" y="175.94" width="0.3" height="3.25" style="fill: rgb(199, 199, 199); transform-origin: 250.94px 177.565px;" id="el2ipvbxd8eyi" class="animable"/><rect x="249.32" y="177.42" width="3.25" height="0.3" style="fill: rgb(199, 199, 199); transform-origin: 250.945px 177.57px;" id="el2fvmlya3plp" class="animable"/><g id="elwnpfcf1gujs"><rect x="249.32" y="177.42" width="3.25" height="0.3" style="fill: rgb(199, 199, 199); transform-origin: 250.945px 177.57px; transform: rotate(-45deg);" class="animable" id="eligs4yutysg"/></g><g id="elfu8h1brsehf"><rect x="250.79" y="175.94" width="0.3" height="3.25" style="fill: rgb(199, 199, 199); transform-origin: 250.94px 177.565px; transform: rotate(-44.99deg);" class="animable" id="elzaygz57skg"/></g><rect x="254.71" y="175.94" width="0.3" height="3.25" style="fill: rgb(199, 199, 199); transform-origin: 254.86px 177.565px;" id="el14fzfxps0lt" class="animable"/><rect x="253.23" y="177.42" width="3.25" height="0.3" style="fill: rgb(199, 199, 199); transform-origin: 254.855px 177.57px;" id="elb63j02jp7z6" class="animable"/><polygon points="253.81 178.82 253.6 178.61 255.9 176.31 256.12 176.52 253.81 178.82" style="fill: rgb(199, 199, 199); transform-origin: 254.86px 177.565px;" id="el94ob1ggnf9" class="animable"/><polygon points="255.9 178.82 253.6 176.52 253.81 176.31 256.12 178.61 255.9 178.82" style="fill: rgb(199, 199, 199); transform-origin: 254.86px 177.565px;" id="el1nskel7k03k" class="animable"/><rect x="258.62" y="175.94" width="0.3" height="3.25" style="fill: rgb(199, 199, 199); transform-origin: 258.77px 177.565px;" id="elm0m9ymn93f" class="animable"/><rect x="257.15" y="177.42" width="3.25" height="0.3" style="fill: rgb(199, 199, 199); transform-origin: 258.775px 177.57px;" id="elmj63jw7ssdc" class="animable"/><polygon points="257.73 178.82 257.52 178.61 259.82 176.31 260.03 176.52 257.73 178.82" style="fill: rgb(199, 199, 199); transform-origin: 258.775px 177.565px;" id="eldjxew2nle1j" class="animable"/><polygon points="259.82 178.82 257.52 176.52 257.73 176.31 260.03 178.61 259.82 178.82" style="fill: rgb(199, 199, 199); transform-origin: 258.775px 177.565px;" id="elcz8x4072vhb" class="animable"/><rect x="267.17" y="175.94" width="0.3" height="3.25" style="fill: rgb(199, 199, 199); transform-origin: 267.32px 177.565px;" id="el7reqmnoht6n" class="animable"/><rect x="265.69" y="177.42" width="3.25" height="0.3" style="fill: rgb(199, 199, 199); transform-origin: 267.315px 177.57px;" id="elp85ng46nrf9" class="animable"/><polygon points="266.28 178.82 266.06 178.61 268.36 176.31 268.58 176.52 266.28 178.82" style="fill: rgb(199, 199, 199); transform-origin: 267.32px 177.565px;" id="el1304prn587fa" class="animable"/><polygon points="268.36 178.82 266.06 176.52 266.28 176.31 268.58 178.61 268.36 178.82" style="fill: rgb(199, 199, 199); transform-origin: 267.32px 177.565px;" id="elyfswi6qd1yi" class="animable"/><rect x="271.08" y="175.94" width="0.3" height="3.25" style="fill: rgb(199, 199, 199); transform-origin: 271.23px 177.565px;" id="eld79h8q34dbk" class="animable"/><rect x="269.61" y="177.42" width="3.25" height="0.3" style="fill: rgb(199, 199, 199); transform-origin: 271.235px 177.57px;" id="elnvhuy7s8srr" class="animable"/><polygon points="270.19 178.82 269.98 178.61 272.28 176.31 272.49 176.52 270.19 178.82" style="fill: rgb(199, 199, 199); transform-origin: 271.235px 177.565px;" id="elb5gzl7qfy3b" class="animable"/><polygon points="272.28 178.82 269.98 176.52 270.19 176.31 272.49 178.61 272.28 178.82" style="fill: rgb(199, 199, 199); transform-origin: 271.235px 177.565px;" id="el1td7j57nt5s" class="animable"/><rect x="275" y="175.94" width="0.3" height="3.25" style="fill: rgb(199, 199, 199); transform-origin: 275.15px 177.565px;" id="el43minuay6lm" class="animable"/><rect x="273.52" y="177.42" width="3.25" height="0.3" style="fill: rgb(199, 199, 199); transform-origin: 275.145px 177.57px;" id="elttlh9el9dpm" class="animable"/><polygon points="274.11 178.82 273.89 178.61 276.19 176.31 276.41 176.52 274.11 178.82" style="fill: rgb(199, 199, 199); transform-origin: 275.15px 177.565px;" id="ele0qrj4anx7e" class="animable"/><polygon points="276.19 178.82 273.89 176.52 274.11 176.31 276.41 178.61 276.19 178.82" style="fill: rgb(199, 199, 199); transform-origin: 275.15px 177.565px;" id="eln8r0pt01ep" class="animable"/><rect x="278.92" y="175.94" width="0.3" height="3.25" style="fill: rgb(199, 199, 199); transform-origin: 279.07px 177.565px;" id="el5mjtnsc8ql5" class="animable"/><rect x="277.44" y="177.42" width="3.25" height="0.3" style="fill: rgb(199, 199, 199); transform-origin: 279.065px 177.57px;" id="eld4qodql9vc7" class="animable"/><polygon points="278.02 178.82 277.81 178.61 280.11 176.31 280.32 176.52 278.02 178.82" style="fill: rgb(199, 199, 199); transform-origin: 279.065px 177.565px;" id="elns5zgddt42g" class="animable"/><polygon points="280.11 178.82 277.81 176.52 278.02 176.31 280.32 178.61 280.11 178.82" style="fill: rgb(199, 199, 199); transform-origin: 279.065px 177.565px;" id="elwvrgrgxwzx" class="animable"/><rect x="287.46" y="175.94" width="0.3" height="3.25" style="fill: rgb(199, 199, 199); transform-origin: 287.61px 177.565px;" id="el29hbd6mi51f" class="animable"/><rect x="285.99" y="177.42" width="3.25" height="0.3" style="fill: rgb(199, 199, 199); transform-origin: 287.615px 177.57px;" id="elbdvknsu2axb" class="animable"/><polygon points="286.57 178.82 286.36 178.61 288.66 176.31 288.87 176.52 286.57 178.82" style="fill: rgb(199, 199, 199); transform-origin: 287.615px 177.565px;" id="el9q0yncifhh5" class="animable"/><polygon points="288.66 178.82 286.36 176.52 286.57 176.31 288.87 178.61 288.66 178.82" style="fill: rgb(199, 199, 199); transform-origin: 287.615px 177.565px;" id="el94bxsqcj92" class="animable"/><rect x="291.38" y="175.94" width="0.3" height="3.25" style="fill: rgb(199, 199, 199); transform-origin: 291.53px 177.565px;" id="el118rubjt2ceq" class="animable"/><rect x="289.9" y="177.42" width="3.25" height="0.3" style="fill: rgb(199, 199, 199); transform-origin: 291.525px 177.57px;" id="elwfdeb1pin6n" class="animable"/><polygon points="290.48 178.82 290.27 178.61 292.57 176.31 292.79 176.52 290.48 178.82" style="fill: rgb(199, 199, 199); transform-origin: 291.53px 177.565px;" id="elyykx4g4bvd" class="animable"/><polygon points="292.57 178.82 290.27 176.52 290.48 176.31 292.79 178.61 292.57 178.82" style="fill: rgb(199, 199, 199); transform-origin: 291.53px 177.565px;" id="el1fh92bflyb5" class="animable"/><rect x="295.29" y="175.94" width="0.3" height="3.25" style="fill: rgb(199, 199, 199); transform-origin: 295.44px 177.565px;" id="elkal8suuhfx" class="animable"/><rect x="293.82" y="177.42" width="3.25" height="0.3" style="fill: rgb(199, 199, 199); transform-origin: 295.445px 177.57px;" id="elm10frutff5" class="animable"/><polygon points="294.4 178.82 294.19 178.61 296.49 176.31 296.7 176.52 294.4 178.82" style="fill: rgb(199, 199, 199); transform-origin: 295.445px 177.565px;" id="elqfd2ksfxsxr" class="animable"/><polygon points="296.49 178.82 294.19 176.52 294.4 176.31 296.7 178.61 296.49 178.82" style="fill: rgb(199, 199, 199); transform-origin: 295.445px 177.565px;" id="elicirfjcttr" class="animable"/><rect x="299.21" y="175.94" width="0.3" height="3.25" style="fill: rgb(199, 199, 199); transform-origin: 299.36px 177.565px;" id="el1fkk81kwnr2" class="animable"/><rect x="297.73" y="177.42" width="3.25" height="0.3" style="fill: rgb(199, 199, 199); transform-origin: 299.355px 177.57px;" id="elkhdfuyc9kd" class="animable"/><polygon points="298.31 178.82 298.1 178.61 300.4 176.31 300.62 176.52 298.31 178.82" style="fill: rgb(199, 199, 199); transform-origin: 299.36px 177.565px;" id="elv5uswi99vr9" class="animable"/><polygon points="300.4 178.82 298.1 176.52 298.31 176.31 300.62 178.61 300.4 178.82" style="fill: rgb(199, 199, 199); transform-origin: 299.36px 177.565px;" id="elu6vn8qk124" class="animable"/><rect x="307.75" y="175.94" width="0.3" height="3.25" style="fill: rgb(199, 199, 199); transform-origin: 307.9px 177.565px;" id="elqh65lus6r2" class="animable"/><rect x="306.28" y="177.42" width="3.25" height="0.3" style="fill: rgb(199, 199, 199); transform-origin: 307.905px 177.57px;" id="eltc2snk3kfip" class="animable"/><polygon points="306.86 178.82 306.65 178.61 308.95 176.31 309.16 176.52 306.86 178.82" style="fill: rgb(199, 199, 199); transform-origin: 307.905px 177.565px;" id="eley3j5pc8tx4" class="animable"/><polygon points="308.95 178.82 306.65 176.52 306.86 176.31 309.16 178.61 308.95 178.82" style="fill: rgb(199, 199, 199); transform-origin: 307.905px 177.565px;" id="eldyvifqh610t" class="animable"/><rect x="311.67" y="175.94" width="0.3" height="3.25" style="fill: rgb(199, 199, 199); transform-origin: 311.82px 177.565px;" id="elr6n59lmnapc" class="animable"/><rect x="310.19" y="177.42" width="3.25" height="0.3" style="fill: rgb(199, 199, 199); transform-origin: 311.815px 177.57px;" id="elpy3n815700i" class="animable"/><polygon points="310.78 178.82 310.56 178.61 312.87 176.31 313.08 176.52 310.78 178.82" style="fill: rgb(199, 199, 199); transform-origin: 311.82px 177.565px;" id="el37gxh0vu5vn" class="animable"/><polygon points="312.87 178.82 310.56 176.52 310.78 176.31 313.08 178.61 312.87 178.82" style="fill: rgb(199, 199, 199); transform-origin: 311.82px 177.565px;" id="elgsze3a3grxt" class="animable"/><rect x="315.59" y="175.94" width="0.3" height="3.25" style="fill: rgb(199, 199, 199); transform-origin: 315.74px 177.565px;" id="el0jsa750ju0qc" class="animable"/><rect x="314.11" y="177.42" width="3.25" height="0.3" style="fill: rgb(199, 199, 199); transform-origin: 315.735px 177.57px;" id="elemkmbtuwqp" class="animable"/><polygon points="314.69 178.82 314.48 178.61 316.78 176.31 316.99 176.52 314.69 178.82" style="fill: rgb(199, 199, 199); transform-origin: 315.735px 177.565px;" id="elgtvvnu6zvc7" class="animable"/><polygon points="316.78 178.82 314.48 176.52 314.69 176.31 316.99 178.61 316.78 178.82" style="fill: rgb(199, 199, 199); transform-origin: 315.735px 177.565px;" id="elgytdizqvdd5" class="animable"/><rect x="319.5" y="175.94" width="0.3" height="3.25" style="fill: rgb(199, 199, 199); transform-origin: 319.65px 177.565px;" id="elsm95i71b1t8" class="animable"/><rect x="318.02" y="177.42" width="3.25" height="0.3" style="fill: rgb(199, 199, 199); transform-origin: 319.645px 177.57px;" id="elcbbdsbdfj4v" class="animable"/><rect x="106.51" y="298.61" width="88.24" height="122.11" style="fill: rgb(235, 235, 235); transform-origin: 150.63px 359.665px;" id="elpagauqyylwd" class="animable"/><rect x="102.24" y="294.08" width="96.79" height="4.53" style="fill: rgb(219, 219, 219); transform-origin: 150.635px 296.345px;" id="el4h5gbnubte6" class="animable"/><rect x="199.02" y="294.08" width="30.44" height="4.53" style="fill: rgb(235, 235, 235); transform-origin: 214.24px 296.345px;" id="elisl47v09fxg" class="animable"/><rect x="194.75" y="298.61" width="29.9" height="122.11" style="fill: rgb(219, 219, 219); transform-origin: 209.7px 359.665px;" id="elv70z0lbszcg" class="animable"/><path d="M185.26,355.14H116V316h69.26Zm-69-.25H185V316.23H116.25Z" style="fill: rgb(199, 199, 199); transform-origin: 150.63px 335.57px;" id="elfenl73yveo8" class="animable"/><rect x="140.97" y="327.43" width="13.48" height="7.75" style="fill: rgb(199, 199, 199); transform-origin: 147.71px 331.305px;" id="elvr0g1ch5rzs" class="animable"/><path d="M158.56,334.72H144.83v-6.83h13.73Zm-13.48-.25h13.23v-6.33H145.08Z" style="fill: rgb(199, 199, 199); transform-origin: 151.695px 331.305px;" id="elv5okgiwrf5j" class="animable"/><path d="M185.26,404.3H116V365.14h69.26Zm-69-.25H185V365.39H116.25Z" style="fill: rgb(199, 199, 199); transform-origin: 150.63px 384.72px;" id="elokowhrnk0rl" class="animable"/><rect x="140.97" y="376.59" width="13.48" height="7.75" style="fill: rgb(199, 199, 199); transform-origin: 147.71px 380.465px;" id="eldmr4kajjsab" class="animable"/><path d="M158.56,383.88H144.83v-6.83h13.73Zm-13.48-.25h13.23V377.3H145.08Z" style="fill: rgb(199, 199, 199); transform-origin: 151.695px 380.465px;" id="el3rg7rahvxd9" class="animable"/></g><g id="freepik--Floor--inject-202" class="animable" style="transform-origin: 250px 420.76px;"><polygon points="51.54 420.76 101.16 420.51 150.77 420.43 250 420.26 349.23 420.42 398.84 420.51 448.46 420.76 398.84 421 349.23 421.09 250 421.26 150.77 421.09 101.16 421 51.54 420.76" style="fill: rgb(38, 50, 56); transform-origin: 250px 420.76px;" id="elzie5kh8ncz" class="animable"/></g><g id="freepik--Shadows--inject-202" class="animable" style="transform-origin: 250.005px 455.47px;"><ellipse cx="103.3" cy="456.14" rx="44.28" ry="8.5" style="fill: rgb(235, 235, 235); transform-origin: 103.3px 456.14px;" id="elk27zz36jifn" class="animable"/><ellipse cx="267.97" cy="455.47" rx="173.02" ry="16.97" style="fill: rgb(119 122 123);transform-origin: 267.97px 455.47px;" id="elhwks7gxrmfg" class="animable"/></g><g id="freepik--Character--inject-202" class="animable" style="transform-origin: 306.687px 280.45px;"><polygon points="315.63 307.45 312.72 324.93 292.97 431.56 289.79 431.56 304.15 324.93 306.27 307.45 315.63 307.45" style="fill: rgb(199, 199, 199); transform-origin: 302.71px 369.505px;" id="elsew68mjjykn" class="animable"/><polygon points="306.27 307.45 315.63 307.45 312.72 324.93 304.15 324.93 306.27 307.45" style="fill: rgb(166, 166, 166); transform-origin: 309.89px 316.19px;" id="elzk6vck86zn" class="animable"/><polygon points="377.64 431.56 374.46 431.56 354.71 324.93 351.8 307.45 361.16 307.45 363.28 324.93 377.64 431.56" style="fill: rgb(199, 199, 199); transform-origin: 364.72px 369.505px;" id="elbp3k0ey9rr" class="animable"/><polygon points="361.16 307.45 363.28 324.93 354.71 324.93 351.8 307.45 361.16 307.45" style="fill: rgb(166, 166, 166); transform-origin: 357.54px 316.19px;" id="elvej2ey6frso" class="animable"/><polygon points="436.87 431.56 433.68 431.56 413.94 324.93 411.02 307.45 420.38 307.45 422.51 324.93 436.87 431.56" style="fill: rgb(199, 199, 199); transform-origin: 423.945px 369.505px;" id="elwbnx1krntif" class="animable"/><polygon points="422.51 324.93 413.94 324.93 411.02 307.45 420.38 307.45 422.51 324.93" style="fill: rgb(166, 166, 166); transform-origin: 416.765px 316.19px;" id="elwb2qh4bz9he" class="animable"/><polygon points="431.82 315.66 287.13 315.66 287.13 300.42 341.29 300.42 369.5 142.4 446.3 142.4 431.82 315.66" style="fill: rgb(199, 199, 199); transform-origin: 366.715px 229.03px;" id="elw2edsoxiy39" class="animable"/><polygon points="431.2 300.42 287.13 300.42 287.13 315.66 431.74 315.66 431.2 300.42" style="fill: rgb(219, 219, 219); transform-origin: 359.435px 308.04px;" id="ely1raprwqqzh" class="animable"/><polygon points="431.82 315.66 423.93 315.66 438.79 142.4 446.3 142.4 431.82 315.66" style="fill: rgb(219, 219, 219); transform-origin: 435.115px 229.03px;" id="el75x0mt5l61f" class="animable"/><path d="M433.61,120.28c-2.23-2.45-11.36-9.3-19.25-13-3.82-1.83-15.36-5.9-17-3.07s1.65,4.32,1.65,4.32-5.14-1-6.51,2,3.78,5.15,3.78,5.15-5.34-.63-6.5,2.45,4.39,4.38,4.39,4.38-4.86-.8-4.74,2.14c.14,3.54,9.26,4,13.39,6.25.94.5,18.28,11.61,18.28,11.61Z" style="fill: rgb(235, 148, 129); transform-origin: 411.519px 122.874px;" id="el3i87vp1e66g" class="animable"/><path d="M394.24,122.54c6.71.36,9.59,1.69,15,5.52.11.07.24-.07.14-.16-4.94-4.23-8.31-6.41-15.12-5.69C393.91,122.25,393.92,122.52,394.24,122.54Z" style="fill: rgb(38, 50, 56); transform-origin: 401.707px 125.077px;" id="elgxebu6wkb6j" class="animable"/><path d="M396,115.53c6.94,1,10.07,2.39,16,6,.09,0,.18-.09.1-.15-5.54-4-8.94-6.11-16-6.18C395.81,115.18,395.71,115.48,396,115.53Z" style="fill: rgb(38, 50, 56); transform-origin: 403.979px 118.365px;" id="el56f6cn1zdd" class="animable"/><path d="M399.58,108.59c6.65,1.44,10.15,2.83,15.47,7.06.13.1.29-.07.17-.18-5-4.85-9.36-6.62-15.57-7.08C399.22,108.36,399.16,108.5,399.58,108.59Z" style="fill: rgb(38, 50, 56); transform-origin: 407.278px 112.033px;" id="elzub8t9s81fq" class="animable"/><path d="M424,146.27s-8.36-1.07-11.93-2.35S397,133,398.93,130.38c2.51-3.37,10.27.89,13.8,3.47,0,0,5.8-7.8,12-5.95S424,146.27,424,146.27Z" style="fill: rgb(235, 148, 129); transform-origin: 413.011px 136.943px;" id="elqtkraexg30k" class="animable"/><path d="M399.92,129.68c4.51-1.42,8.92,2.27,12.53,4.52a.39.39,0,0,0,.6-.23c2.65-3.11,7.29-6.72,11.58-6.3a.1.1,0,0,0,0-.2c-4.54-1.07-9.39,2.11-12.08,5.7-3.66-2.37-8.25-5.87-12.68-3.53C399.88,129.65,399.9,129.69,399.92,129.68Z" style="fill: rgb(38, 50, 56); transform-origin: 412.3px 130.764px;" id="el2qnwonvkftl" class="animable"/><path d="M353.33,111.82c3-1.33,14.65-4.87,23.38-5.1,4.23-.11,16.43.86,16.77,4.11s-3.26,3.28-3.26,3.28,5.09,1.18,5.13,4.47-5.55,3.17-5.55,3.17,5.14,1.59,4.95,4.88-5.8,2.22-5.8,2.22,4.77,1.24,3.47,3.88c-1.57,3.18-10.1-.1-14.78.26-1.06.08-21.41,3.18-21.41,3.18Z" style="fill: rgb(235, 148, 129); transform-origin: 374.34px 121.441px;" id="elp45lurmbitn" class="animable"/><path d="M388.87,128.89c-6.28-2.39-9.45-2.35-15.93-1-.13,0-.2-.15-.07-.19,6.24-1.86,10.2-2.48,16.13.95C389.29,128.76,389.17,129,388.87,128.89Z" style="fill: rgb(38, 50, 56); transform-origin: 380.983px 127.554px;" id="elnfbr4bmf3l" class="animable"/><path d="M390.08,121.76c-6.74-1.92-10.17-1.91-17.06-1-.1,0-.13-.15,0-.17,6.69-1.42,10.65-2,17.14.86C390.42,121.53,390.39,121.85,390.08,121.76Z" style="fill: rgb(38, 50, 56); transform-origin: 381.635px 120.595px;" id="ellxi55i4osfo" class="animable"/><path d="M389.66,114c-6.66-1.39-10.42-1.54-17,.16a.12.12,0,0,1-.08-.23c6.55-2.39,11.24-2.24,17.11-.14C390.08,113.91,390.08,114.06,389.66,114Z" style="fill: rgb(38, 50, 56); transform-origin: 381.239px 113.172px;" id="el8e7rd1o23vs" class="animable"/><path d="M352,138.47s8.07,2.42,11.84,2.7,18.25-3.84,17.54-7c-.93-4.1-9.75-3.36-14-2.43,0,0-2.13-9.49-8.57-10.33S352,138.47,352,138.47Z" style="fill: rgb(235, 148, 129); transform-origin: 366.703px 131.282px;" id="el2xp79u4xla2" class="animable"/><path d="M380.77,133.11c-3.54-3.14-9.07-1.56-13.28-1a.39.39,0,0,1-.46-.45c-1.15-3.91-3.92-9.1-8-10.46-.12,0-.08-.22,0-.19,4.59.86,7.73,5.73,8.72,10.11,4.31-.68,9.93-2,13,1.92C380.82,133.1,380.8,133.13,380.77,133.11Z" style="fill: rgb(38, 50, 56); transform-origin: 369.876px 127.062px;" id="el6dkudbrtsi4" class="animable"/><path d="M376.33,173.21c-22.88-6.18-58.91-26.87-55.6-36.83,3.21-9.68,16.72-19.8,34-25.18,2.52-.79,2,4.5,3.17,13.72.57,4.36,8.22,16.11,4.53,16.08a15.25,15.25,0,0,0-5.6,1.25c-1.35.52,14.88,11.36,23.95,18.16C393,169.53,386.1,175.84,376.33,173.21Z" style="fill: rgb(235, 148, 129); transform-origin: 353.918px 142.467px;" id="eldfp8pwkvq0v" class="animable"/><path d="M343.3,166.19l25.36-15.88s15.23,9.26,19,14.39.8,10.68-11,10.69C363.09,175.4,343.3,166.19,343.3,166.19Z" style="fill: #407BFF; transform-origin: 366.249px 162.85px;" id="elg4jmllcuf5v" class="animable"/><g id="el8fjv4m15fv3"><g style="opacity: 0.1; transform-origin: 367.641px 163.35px;" class="animable" id="elwa0ez6yu9il"><path d="M375.15,154.49H362l2.34-1.46h8.62Z" id="elbw407ejs02p" class="animable" style="transform-origin: 368.575px 153.76px;"/><path d="M381.84,159.29H354.32l2.33-1.46h23.26Z" id="elxb094ioj4c" class="animable" style="transform-origin: 368.08px 158.56px;"/><path d="M387.15,164.08H346.67l2.33-1.46h36.76C386.29,163.13,386.76,163.62,387.15,164.08Z" id="elz4nqftpli5i" class="animable" style="transform-origin: 366.91px 163.35px;"/><path d="M389.18,168.88H349.7c-1.39-.54-2.61-1-3.6-1.46H389A5,5,0,0,1,389.18,168.88Z" id="eleo33teal2li" class="animable" style="transform-origin: 367.641px 168.15px;"/><path d="M387.74,172.22a7.54,7.54,0,0,1-2,1.45H364.5c-1.78-.44-3.54-.93-5.25-1.45Z" id="el3nrlikshfdi" class="animable" style="transform-origin: 373.495px 172.945px;"/></g></g><path d="M350,168.14c10.21-6.24,20.32-13.28,22-14.65.07-.06,0-.17-.1-.13a220.15,220.15,0,0,0-22,14.65A.08.08,0,0,0,350,168.14Z" style="fill: rgb(38, 50, 56); transform-origin: 360.949px 160.754px;" id="elolqw3dofzg" class="animable"/><path d="M376.64,175.39a57.73,57.73,0,0,1-14.7-2.39c6.63-4.45,14.51-9.7,20.28-13.41a30.87,30.87,0,0,1,5.43,5.11C391.41,169.82,388.45,175.38,376.64,175.39Z" style="fill: rgb(38, 50, 56); transform-origin: 375.562px 167.49px;" id="eluw217m5xa9r" class="animable"/><path d="M292.73,451.88c2.82.27,79.43-18,81.84-20.46.3-.28-1.21-7.24-3.42-16.74l0-.19c-1.39-6-23.7-54.7-23.7-54.7l-49.66,13.84,22.56,45.17S311,425.55,303,432c0,0,0,0,0,0-4.95,3.94-9.22,7.47-10.12,8.62C290.47,443.59,289.93,451.63,292.73,451.88Z" style="fill: rgb(235, 148, 129); transform-origin: 332.725px 405.836px;" id="el1gc3lm5qp73" class="animable"/><path d="M292.74,451.87c2.8.27,79.41-18,81.84-20.45.29-.28-1.22-7.24-3.43-16.74l0-.18c-.5-2.24-3.94-10.43-8-19.8-8.17,2.19-37.47,10.11-48.11,13.4l5.35,10.71S311,425.56,303,432c0,0,0,0,0,0-4.95,3.93-9.22,7.47-10.12,8.61C290.47,443.59,289.92,451.64,292.74,451.87Z" style="fill: rgb(235, 235, 235); transform-origin: 332.728px 423.286px;" id="elssh39mkmpi" class="animable"/><path d="M292.48,452.24c2.9.25,79.56-18.2,82-20.75.94-1-.75-13.06-4.95-25.88l-49.41,12s-25.23,20-27.65,23.06S289.59,452,292.48,452.24Z" style="fill: #407BFF; transform-origin: 332.606px 428.926px;" id="el1l0mpdf8bk6" class="animable"/><path d="M292.84,448.91c12.78-3.41,64.63-16,77.51-18.35.11,0,.13.05,0,.08-12.58,3.65-64.53,15.78-77.48,18.48C292.62,449.18,292.57,449,292.84,448.91Z" style="fill: rgb(38, 50, 56); transform-origin: 331.549px 439.846px;" id="el3fh29d36r6m" class="animable"/><path d="M296.77,436.69a10.64,10.64,0,0,1,8.45,1.28,10.32,10.32,0,0,1,4.52,6.17c0,.08-.12.12-.15,0a12.28,12.28,0,0,0-12.78-7.33A.08.08,0,0,1,296.77,436.69Z" style="fill: rgb(38, 50, 56); transform-origin: 303.248px 440.27px;" id="elf1ro0fxz7z8" class="animable"/><path d="M316.44,419.82c5.13-1.31,11.53-.93,15.74,2.51.16.14,0,.36-.2.32a73.39,73.39,0,0,0-15.48-2.17A.34.34,0,0,1,316.44,419.82Z" style="fill: rgb(38, 50, 56); transform-origin: 324.226px 420.889px;" id="el36g4dd7fteh" class="animable"/><path d="M312.84,422.33c5.13-1.31,11.53-.93,15.74,2.51.16.13,0,.36-.2.32A73.4,73.4,0,0,0,312.91,423,.33.33,0,0,1,312.84,422.33Z" style="fill: rgb(38, 50, 56); transform-origin: 320.593px 423.399px;" id="elnp7wqpkg12h" class="animable"/><path d="M309.24,424.83c5.13-1.31,11.53-.93,15.74,2.51.16.13,0,.36-.2.32a72.74,72.74,0,0,0-15.47-2.17A.34.34,0,0,1,309.24,424.83Z" style="fill: rgb(38, 50, 56); transform-origin: 317.027px 425.899px;" id="el1mhc8556xav" class="animable"/><path d="M305.65,427.34c5.12-1.31,11.52-.93,15.73,2.5.16.14,0,.37-.2.33A73.4,73.4,0,0,0,305.71,428,.33.33,0,0,1,305.65,427.34Z" style="fill: rgb(38, 50, 56); transform-origin: 313.397px 428.409px;" id="elqdsejwea7g" class="animable"/><path d="M364.14,419.14c5.78-1.37,7.92,7.6,2.14,9S358.36,420.51,364.14,419.14Z" style="fill: rgb(38, 50, 56); transform-origin: 365.21px 423.643px;" id="elr48c2n79vwd" class="animable"/><path d="M309.8,414.88c3.64,2.91,8.41,4.15,12.68,5.8a.65.65,0,0,0,.83-.64.13.13,0,0,0,.12-.18,27.61,27.61,0,0,0-7.84-12c-2.14-1.86-5.93-3.18-8-.39C305.61,410.07,307.68,413.18,309.8,414.88Zm-1.26-4.21c-.84-5.72,5.25-2.63,6.77-1.2a30,30,0,0,1,2.72,3,83.64,83.64,0,0,1,4.73,6.92c-2.05-.94-4.16-1.7-6.24-2.56C314,415.82,309,413.83,308.54,410.67Z" style="fill: rgb(38, 50, 56); transform-origin: 315.116px 413.285px;" id="eli7cbxf23nm" class="animable"/><path d="M340.91,412.18c-1.21-3.26-5.22-3.07-7.8-1.89a27.69,27.69,0,0,0-10.92,9.32.14.14,0,0,0,.07.21.65.65,0,0,0,.61.85c4.56-.38,9.49-.22,13.8-2C339.19,417.65,342.06,415.26,340.91,412.18Zm-11.24,6.5c-2.24.24-4.48.37-6.71.69a82.54,82.54,0,0,1,6.5-5.3,27.22,27.22,0,0,1,3.46-2.13c1.86-.94,8.57-2.18,6.15,3.07C337.74,417.9,332.34,418.39,329.67,418.68Z" style="fill: rgb(38, 50, 56); transform-origin: 331.669px 415.088px;" id="el9wm830nadn" class="animable"/><path d="M315.92,412.92l52.73-14.12s-46.34-96.09-42.6-101.38c1.87-2.64,51.29-4.87,66.62-18.68,19.91-17.93,5.42-44,5.42-44H342.83s1,11.53-1.1,13.33c-1.38,1.2-67,8.69-73.57,31.11C260.11,306.67,315.92,412.92,315.92,412.92Z" style="fill: rgb(38, 50, 56); transform-origin: 335.274px 323.83px;" id="elg5yz85orqpv" class="animable"/><path d="M315,405.19a32.22,32.22,0,0,1,4.32-1.64c1.53-.53,3.07-1.06,4.6-1.57,3-1,6.08-1.94,9.14-2.82,6.17-1.78,12.34-3.52,18.56-5.14,3.24-.84,10.17-2.67,10.61-2.61.2,0,.25.38.07.45-6,2.18-12.1,4.05-18.19,5.95s-12.18,3.75-18.35,5.34c-1.71.44-3.43.84-5.14,1.26a39.41,39.41,0,0,1-5.46,1.2C315,405.62,314.8,405.28,315,405.19Z" style="fill: rgb(69, 90, 100); transform-origin: 338.664px 398.509px;" id="eltluv695ylbi" class="animable"/><path d="M316.47,293.12c1.09-1,2.75-1.14,4.13-1.42L344.39,287c7.42-1.47,14.89-2.81,22.27-4.47,6.11-1.37,12.31-3.15,17.53-6.65a25.67,25.67,0,0,0,10.43-14.54c1.69-5.91,1.63-12.21.87-18.26-.19-1.48-.51-2.95-.83-4.41,0-.11.16-.15.18,0,2.36,11.26,2.93,24.4-5.28,33.67-4,4.52-9.61,7.28-15.35,9.12-6.49,2.09-13.29,3.19-20,4.51l-23.79,4.7c-3.82.75-7.7,1.37-11.48,2.28a3.9,3.9,0,0,0-2.05,1,3,3,0,0,0-.25,2.78c.44,1.86,1,3.71,1.59,5.53,4.8,14.74,38.42,84.53,39.33,86.14.1.17-.17.31-.27.14-7.7-12.82-32.76-66.7-38-80.62A88.81,88.81,0,0,1,315.86,297C315.54,295.66,315.34,294.16,316.47,293.12Z" style="fill: rgb(69, 90, 100); transform-origin: 355.991px 313.595px;" id="el6cehz1c3j9m" class="animable"/><path d="M157.79,453.8c2.62,1.05,81.27,5.07,84.29,3.36.36-.18.87-7.29,1.41-17l.4-9.18c.14-3.1,40.63-48.23,40.63-48.23l-56.45-3.41-34.52,50.49s-10.87,3.85-20.36,7.75c0,0,0,0,0,0C167.31,440,162.23,442.15,161,443,158,445.21,155.16,452.78,157.79,453.8Z" style="fill: rgb(235, 148, 129); transform-origin: 220.635px 418.459px;" id="elk1202r5n3pp" class="animable"/><path d="M254.21,417.41c-5.88,7-10.27,12.53-10.31,13.55l-.41,9.18c-.54,9.73-1.05,16.84-1.41,17-3,1.71-81.67-2.31-84.3-3.35s.16-8.6,3.26-10.81c1.19-.84,6.28-3,12.13-5.43l0,0c9.48-3.89,20.35-7.74,20.35-7.74l10-14.58Z" style="fill: rgb(235, 235, 235); transform-origin: 205.472px 436.394px;" id="elkun3vlh8u4" class="animable"/><path d="M157.44,454.08c2.71,1.06,81.47,4.88,84.57,3.13,1.18-.66,3-12.74,2.52-26.22l-50.78-2.41s-29.83,12.08-33,14.36S154.74,453,157.44,454.08Z" style="fill: #407BFF; transform-origin: 200.485px 443.121px;" id="eljvh6jv4s0n7" class="animable"/><path d="M158.73,451c13.22.31,66.5,2.84,79.54,4.16.11,0,.11.08,0,.08-13.11,0-66.37-3-79.55-4C158.44,451.18,158.45,451,158.73,451Z" style="fill: rgb(38, 50, 56); transform-origin: 198.434px 453.12px;" id="el1yqxfi86exr" class="animable"/><path d="M165.93,440.36a10.61,10.61,0,0,1,7.75,3.61,10.26,10.26,0,0,1,2.6,7.19c0,.08-.15.07-.16,0a12.28,12.28,0,0,0-10.19-10.63A.08.08,0,0,1,165.93,440.36Z" style="fill: rgb(38, 50, 56); transform-origin: 171.066px 445.788px;" id="ell4o5wusazlg" class="animable"/><path d="M189.55,429.7c5.28.18,11.32,2.35,14.39,6.83.12.17-.13.34-.28.25a73.26,73.26,0,0,0-14.24-6.43A.34.34,0,0,1,189.55,429.7Z" style="fill: rgb(38, 50, 56); transform-origin: 196.595px 433.252px;" id="elb4phw4zjq3k" class="animable"/><path d="M185.39,431.09c5.29.19,11.32,2.35,14.4,6.83.11.17-.13.34-.29.25a73.17,73.17,0,0,0-14.23-6.43A.33.33,0,0,1,185.39,431.09Z" style="fill: rgb(38, 50, 56); transform-origin: 192.409px 434.64px;" id="eltagk533e4mj" class="animable"/><path d="M181.23,432.49c5.29.18,11.33,2.34,14.4,6.82.12.18-.13.34-.28.26a72.71,72.71,0,0,0-14.24-6.44A.33.33,0,0,1,181.23,432.49Z" style="fill: rgb(38, 50, 56); transform-origin: 188.277px 436.041px;" id="elf3ompj828lq" class="animable"/><path d="M177.07,433.88c5.29.18,11.33,2.34,14.4,6.83.12.17-.13.34-.28.25A73.3,73.3,0,0,0,177,434.52.33.33,0,0,1,177.07,433.88Z" style="fill: rgb(38, 50, 56); transform-origin: 184.139px 437.432px;" id="ela5m5f4j6coe" class="animable"/><path d="M235.52,442.45c5.93.3,5.46,9.52-.48,9.21S229.58,442.14,235.52,442.45Z" style="fill: rgb(38, 50, 56); transform-origin: 235.278px 447.055px;" id="elsfow531ls1" class="animable"/><path d="M184.56,423.09c2.68,3.82,6.91,6.34,10.55,9.13a.65.65,0,0,0,1-.38.14.14,0,0,0,.17-.14A27.74,27.74,0,0,0,192.1,418c-1.53-2.38-4.8-4.72-7.58-2.63S183,420.86,184.56,423.09Zm0-4.39c.81-5.72,5.78-1.06,6.84.75a29.17,29.17,0,0,1,1.76,3.65,83.46,83.46,0,0,1,2.6,8c-1.7-1.48-3.52-2.8-5.27-4.21C188.37,425.18,184.09,421.85,184.53,418.7Z" style="fill: rgb(38, 50, 56); transform-origin: 189.579px 423.447px;" id="el7gt1v653e74" class="animable"/><path d="M215.18,429.24c-.25-3.47-4.15-4.41-7-4a27.8,27.8,0,0,0-13.1,5.88.14.14,0,0,0,0,.22.64.64,0,0,0,.35,1c4.49.93,9.17,2.47,13.8,2C212,434,215.41,432.52,215.18,429.24Zm-12.61,3.08c-2.22-.4-4.41-.91-6.64-1.22a83.23,83.23,0,0,1,7.73-3.27,29.36,29.36,0,0,1,3.91-1.07c2.06-.38,8.85.32,5.05,4.68C210.53,433.84,205.21,432.8,202.57,432.32Z" style="fill: rgb(38, 50, 56); transform-origin: 205.072px 429.789px;" id="eliil3ny3xqyo" class="animable"/><path d="M191.14,419.25,254.21,427s62.37-74.62,67.41-79.59c15.62-15.4,71.62-42,88.33-66.7,15-22.21-.19-45.94-.19-45.94H348.18a126.71,126.71,0,0,0,6.28,19.21s-51.15,38.51-78.41,66C258.48,337.71,191.14,419.25,191.14,419.25Z" style="fill: rgb(38, 50, 56); transform-origin: 303.854px 330.885px;" id="el12e6nrevfrl" class="animable"/><path d="M343.51,250a30.23,30.23,0,0,1,5.27,1.52c1.78.62,3.54,1.34,5.27,2.11a102.49,102.49,0,0,1,9.89,5.22c.1.06,0,.2-.09.15-3.38-1.63-6.86-3.08-10.35-4.47l-5-2a52.62,52.62,0,0,1-5.09-2.07C343.16,250.4,343.27,250,343.51,250Z" style="fill: rgb(69, 90, 100); transform-origin: 353.625px 254.505px;" id="elsrowygom2kk" class="animable"/><path d="M346.75,234.75c.79,2.79,1.49,5.6,2.37,8.36.41,1.26.81,2.55,1.33,3.78.44,1,1.09,2.2,2.31,2.4,1.4.23,1.77-1,1.62-2.12a38.21,38.21,0,0,0-.83-3.82c-.33-1.45-2-8.49-2-8.53s0-.13.07-.21a.09.09,0,0,1,.12,0c.27.14,2,5.55,2.36,6.89s.75,2.69,1.12,4a6.36,6.36,0,0,1,.37,3.11,2.4,2.4,0,0,1-2.16,1.86c.05.09.11.17.16.27.13.27.23.56.34.84s.22.58.32.87a3.29,3.29,0,0,1,.09.43c0,.17,0,.33,0,.49a.23.23,0,0,1-.43.17c-.08-.14-.19-.25-.28-.39a2.4,2.4,0,0,1-.21-.46q-.15-.42-.27-.84c-.08-.28-.18-.57-.24-.85a4.63,4.63,0,0,1-.07-.52,3.21,3.21,0,0,1-1.64-.57,5.49,5.49,0,0,1-1.75-2.51c-.46-1.16-.82-2.36-1.19-3.55a52.37,52.37,0,0,1-2.05-9A.26.26,0,0,1,346.75,234.75Z" style="fill: rgb(69, 90, 100); transform-origin: 350.925px 244.105px;" id="eluw1kbgseq7" class="animable"/><path d="M383.54,240.54c.3,1.38.5,2.78.86,4.16s.76,2.68,1.25,4a14,14,0,0,0,1.82,3.57,13.33,13.33,0,0,0,2.81,2.7,23.21,23.21,0,0,0,6.7,3.47,29.6,29.6,0,0,0,3.7,1c.65.12,1.3.22,2,.28a4.24,4.24,0,0,1,1.58.32.32.32,0,0,1,0,.55,5.73,5.73,0,0,1-2.91.18,21.38,21.38,0,0,1-9.1-2.77,18.36,18.36,0,0,1-5-3.88,14,14,0,0,1-2.81-5.69,28.71,28.71,0,0,1-1.09-7.81A.14.14,0,0,1,383.54,240.54Z" style="fill: rgb(69, 90, 100); transform-origin: 393.883px 250.703px;" id="elevmx961ay5c" class="animable"/><path d="M205,410a39.4,39.4,0,0,1,5.1.2c1.79.12,3.57.23,5.35.37,3.51.29,7,.61,10.5,1,7,.8,14.08,1.63,21.09,2.6,3.66.51,11.51,1.56,11.93,1.79a.24.24,0,0,1-.12.44c-7-.37-14-1.05-21-1.71s-14-1.35-21-2.32c-1.92-.27-3.84-.59-5.77-.88a46.56,46.56,0,0,1-6.08-1.05C204.81,410.36,204.77,410,205,410Z" style="fill: rgb(69, 90, 100); transform-origin: 231.96px 413.194px;" id="el9g5zmaqck3" class="animable"/><path d="M340.77,333c-3.27,2.1-6.43,4.36-9.6,6.6a90.09,90.09,0,0,0-8.7,6.44,46.45,46.45,0,0,0-3.85,4.09l-3.76,4.35c-2.51,2.89-5,5.81-7.47,8.74q-2.1,2.47-4.17,5c-1.44,1.73-2.78,3.55-4.23,5.28a.11.11,0,0,0,.16.15c2.56-2.89,5.28-5.66,7.84-8.56s5.12-5.8,7.65-8.74,4.79-5.77,7.39-8.46a59.43,59.43,0,0,1,8.62-6.76c3.5-2.5,7-5,10.43-7.61C341.37,333.3,341.1,332.82,340.77,333Z" style="fill: rgb(69, 90, 100); transform-origin: 320.085px 353.32px;" id="el2sx7yscqw7d" class="animable"/><path d="M353.47,254.41c-10.52,7.38-21.4,15.63-31.29,23.82s-19.68,16.55-29.24,25.15q-4,3.6-8,7.3c-2.66,2.48-5.26,5.59-7.92,8.07-.14.13.08.34.22.21,4.81-4.31,9.78-9,14.65-13.24s9.7-8.4,14.57-12.57q14.68-12.57,29.73-24.71c5.56-4.51,12-9.07,17.5-13.72C353.9,254.57,353.65,254.27,353.47,254.41Z" style="fill: rgb(69, 90, 100); transform-origin: 315.373px 286.687px;" id="eljqxhk4uhfk8" class="animable"/><path d="M407.89,242c-.6-1.77-1.24-3.53-1.9-5.29,0-.1-.2,0-.16.05,2.48,7.32,5,14.82,5.28,22.62a29.29,29.29,0,0,1-1.6,11,28.91,28.91,0,0,1-5.62,9.15c-4.9,5.53-11.13,9.89-17,14.3q-9.6,7.19-19.51,14c-6.58,4.52-13.33,8.83-20.15,13s-13.72,7.93-20.5,12a55.08,55.08,0,0,0-9.18,6.8c-2.84,2.66-5.38,5.61-7.94,8.54q-8.22,9.39-16.28,18.92-16.19,19-31.73,38.57-1.9,2.38-3.8,4.79c-.06.08,0,.19.11.11q16-19.59,32.35-38.9,8.12-9.6,16.33-19.1c5.25-6.06,10.3-12.49,17-17,3.23-2.2,6.68-4.07,10.07-6q5.33-3,10.56-6.18,10.43-6.27,20.52-13c6.69-4.48,13.29-9.07,19.77-13.86q4.84-3.58,9.62-7.3a95.11,95.11,0,0,0,7.91-6.69,35.71,35.71,0,0,0,6.34-8,26.22,26.22,0,0,0,3.15-10.13C412.29,256.77,410.3,249.14,407.89,242Z" style="fill: rgb(69, 90, 100); transform-origin: 334.735px 323.628px;" id="elal0b3i1n08" class="animable"/><path d="M338.22,245.59c1.1,2.1,78,19.88,78.54,19.53,1.34-1,5.75-71.42-14.54-102.92-3.57-5.55-12.25-6.58-16.72-5.42-2.23.58-11.4,8.39-15.6,16.2S337.54,244.25,338.22,245.59Z" style="fill: #407BFF; transform-origin: 378.157px 210.74px;" id="elq4y9wykuohn" class="animable"/><g id="eln9t7pz3x5cb"><g style="opacity: 0.1; transform-origin: 378.17px 211.315px;" class="animable" id="el3j4t3s092ih"><path d="M399.37,159.29H381.66c.7-.58,1.35-1.07,1.92-1.46h13.15A12.79,12.79,0,0,1,399.37,159.29Z" id="elb6t123tvgsj" class="animable" style="transform-origin: 390.515px 158.56px;"/><path d="M403.37,164.08H376.56c.47-.51.95-1,1.42-1.46h24.5C402.79,163.1,403.08,163.58,403.37,164.08Z" id="elrygstcrcfnn" class="animable" style="transform-origin: 389.965px 163.35px;"/><path d="M405.91,168.88H372.53c.36-.5.74-1,1.12-1.46h31.54C405.44,167.9,405.67,168.39,405.91,168.88Z" id="elws48ab9otgc" class="animable" style="transform-origin: 389.22px 168.15px;"/><path d="M408,173.67H369.55l.35-.69c.14-.25.28-.51.43-.76h37.06C407.59,172.7,407.79,173.18,408,173.67Z" id="el71764qphytm" class="animable" style="transform-origin: 388.775px 172.945px;"/><path d="M409.72,178.47h-42.5c.25-.52.48-1,.69-1.46h41.31C409.39,177.49,409.56,178,409.72,178.47Z" id="eliiwubarpxi" class="animable" style="transform-origin: 388.47px 177.74px;"/><path d="M411.2,183.27H365l.67-1.46h45.1C410.92,182.29,411.06,182.78,411.2,183.27Z" id="elr85qtbuhgg" class="animable" style="transform-origin: 388.1px 182.54px;"/><path d="M412.46,188.06H362.81c.22-.5.44-1,.66-1.46H412.1Z" id="elpxau10j3lrc" class="animable" style="transform-origin: 387.635px 187.33px;"/><path d="M413.55,192.86H360.63c.22-.49.45-1,.66-1.46h51.94C413.34,191.88,413.45,192.37,413.55,192.86Z" id="elogvcykb169" class="animable" style="transform-origin: 387.09px 192.13px;"/><path d="M414.47,197.66h-56c.22-.49.43-1,.65-1.46h55.08C414.3,196.68,414.39,197.17,414.47,197.66Z" id="elc2y1tmj49xa" class="animable" style="transform-origin: 386.47px 196.93px;"/><path d="M415.28,202.45H356.34c.22-.49.43-1,.65-1.46H415Z" id="elf9m4wj8efq" class="animable" style="transform-origin: 385.81px 201.72px;"/><path d="M416,207.25H354.21c.21-.48.43-1,.64-1.46h60.91C415.83,206.28,415.89,206.76,416,207.25Z" id="elon6jxptjjy" class="animable" style="transform-origin: 385.105px 206.52px;"/><path d="M416.53,212H352.1c.21-.49.42-1,.64-1.46h63.62C416.42,211.07,416.47,211.55,416.53,212Z" id="elzzfuffo48lg" class="animable" style="transform-origin: 384.315px 211.27px;"/><path d="M417,216.84H350c.2-.48.42-1,.63-1.46h66.23C416.91,215.87,417,216.35,417,216.84Z" id="elokczaknvu5b" class="animable" style="transform-origin: 383.5px 216.11px;"/><path d="M417.38,221.64H347.91c.2-.48.42-1,.63-1.46h68.73C417.31,220.67,417.35,221.15,417.38,221.64Z" id="eloynpkjba0l" class="animable" style="transform-origin: 382.645px 220.91px;"/><path d="M417.68,226.43H345.84l.62-1.46H417.6C417.63,225.46,417.65,226,417.68,226.43Z" id="elo4r7tr5l61" class="animable" style="transform-origin: 381.76px 225.7px;"/><path d="M417.89,231.23h-74.1l.62-1.46h73.43C417.86,230.26,417.88,230.75,417.89,231.23Z" id="ell01mndgpgd" class="animable" style="transform-origin: 380.84px 230.5px;"/><path d="M418,236H341.78l.61-1.46H418Z" id="el7jjjiq5dxon" class="animable" style="transform-origin: 379.89px 235.27px;"/><path d="M418.1,240.82H339.84c.17-.46.37-.95.57-1.46h77.68C418.1,239.85,418.1,240.34,418.1,240.82Z" id="el8pru69iwrro" class="animable" style="transform-origin: 378.97px 240.09px;"/><path d="M418.1,244.16c0,.49,0,1,0,1.46H338.24l0,0a4,4,0,0,1,.36-1.43Z" id="el6bd5dhw85up" class="animable" style="transform-origin: 378.17px 244.89px;"/><path d="M418,249c0,.5,0,1,0,1.46H354c-2-.51-3.81-1-5.5-1.46Z" id="ele92zofxvhhi" class="animable" style="transform-origin: 383.25px 249.73px;"/><path d="M417.88,253.75c0,.5,0,1-.06,1.46H373.3c-2-.49-4-1-6-1.46Z" id="el7q58h0cdr4t" class="animable" style="transform-origin: 392.59px 254.48px;"/><path d="M417.62,258.54c0,.51-.07,1-.11,1.46h-24l-6.25-1.46Z" id="el56fkt2blta" class="animable" style="transform-origin: 402.44px 259.27px;"/><path d="M417.16,263.34a9.5,9.5,0,0,1-.26,1.46h-2c-1.5-.3-3.83-.81-6.76-1.46Z" id="ele43ild0xkan" class="animable" style="transform-origin: 412.65px 264.07px;"/></g></g><path d="M398.75,178.4c13.83-1.12,36.75-6.08,49.22-13,7.48-4.18,8.61-9.79,9-13.71,1-10.14-15.9-26.6-24.78-32.74-1.17-.81-2.87,5.15-8.25,11.84-4.55,5.67-13.13,12.07-11.84,13.16,1.9,1.6,10.71,7.67,10.29,8.4-.72,1.25-8.89,4.72-21.13,10.65C384.84,170.92,389,179.2,398.75,178.4Z" style="fill: rgb(235, 148, 129); transform-origin: 423.597px 148.665px;" id="elfeuhgxuywnu" class="animable"/><path d="M435.13,174.49l-23.72-18.24s-16.05,7.76-20.28,12.5-1.82,10.55,9.94,11.7C414.55,181.76,435.13,174.49,435.13,174.49Z" style="fill: #407BFF; transform-origin: 412.159px 168.429px;" id="el6eqswwt67rd" class="animable"/><path d="M429.16,175.06c-9-7.93-18.65-15.53-20.46-16.75-.08-.05-.16.07-.1.13a219.39,219.39,0,0,0,20.47,16.75C429.14,175.24,429.23,175.12,429.16,175.06Z" style="fill: rgb(38, 50, 56); transform-origin: 418.882px 166.75px;" id="elwk6bxm009e" class="animable"/><path d="M414.79,178.6a12.83,12.83,0,0,0-5,2,10.19,10.19,0,0,0-1.91,1.86,7.26,7.26,0,0,0-.76,1.08,7.14,7.14,0,0,0-.57,1.14c0,.09.1.14.15.08.29-.29.53-.63.83-.92s.57-.6.88-.88a19.55,19.55,0,0,1,2-1.65,14.34,14.34,0,0,1,4.45-2.48A.12.12,0,0,0,414.79,178.6Z" style="fill: rgb(38, 50, 56); transform-origin: 410.748px 181.69px;" id="elr9z3e16i4oq" class="animable"/><g id="el0f6y1c78cxdr"><g style="opacity: 0.1; transform-origin: 411.625px 168.145px;" class="animable" id="elahemeo8ho7o"><path d="M415.36,159.29h-9.88c1-.54,2-1,2.78-1.46h5.2Z" id="el2hcrrzoh88u" class="animable" style="transform-origin: 410.42px 158.56px;"/><path d="M421.59,164.08H397.2c.76-.49,1.56-1,2.36-1.46h20.13Z" id="elv8osjrs3cxi" class="animable" style="transform-origin: 409.395px 163.35px;"/><path d="M427.83,168.88H391l.11-.13a14.08,14.08,0,0,1,1.4-1.33h33.41Z" id="elc39yz6pmst" class="animable" style="transform-origin: 409.415px 168.15px;"/><path d="M434.06,173.67H389.22a4.72,4.72,0,0,1,.06-1.45h42.9Z" id="elalc0cu3ktsu" class="animable" style="transform-origin: 411.625px 172.945px;"/><path d="M426.86,177c-1.78.48-3.77,1-5.88,1.46H393.24a10,10,0,0,1-2.19-1.46Z" id="elb1jmkd6zid" class="animable" style="transform-origin: 408.955px 177.73px;"/></g></g><path d="M383.44,169.79c4,1.66,12.09-3.46,15.74-8.1.24-.32,1.13-14.56,1.6-17.37.09-.57-18.31,1.34-18.31,1.34a45.14,45.14,0,0,1-.1,11.05C382.3,157.12,379.61,168.18,383.44,169.79Z" style="fill: rgb(235, 148, 129); transform-origin: 391.084px 157.162px;" id="eldae3y83nuvi" class="animable"/><path d="M382.06,157.84c0,.06,0,.12-.06.19l.09,0a10,10,0,0,0,1.71.38c9.6,1.38,14.78-9.84,16.43-14.21-3-.09-17.76,1.44-17.76,1.44a45.14,45.14,0,0,1-.1,11.05c0,.14-.05.27-.07.39A4.27,4.27,0,0,1,382.06,157.84Z" style="fill: rgb(38, 50, 56); transform-origin: 391.115px 151.361px;" id="elsy6ejxprle" class="animable"/><path d="M380.06,112.87s-6,2.42-7.16,8.48.16,12.44.68,12.76S380.06,112.87,380.06,112.87Z" style="fill: rgb(38, 50, 56); transform-origin: 376.248px 123.492px;" id="elqn1kp4oryq" class="animable"/><path d="M403.19,121.93c1.91,6.33-1.46,24.59-6,28.66-6.53,5.89-17.2,6.43-22.2-1.42-4.85-7.6,0-31.32,5-35C387.43,108.72,400.35,112.59,403.19,121.93Z" style="fill: rgb(235, 148, 129); transform-origin: 388.36px 133.356px;" id="elkon48qadour" class="animable"/><path d="M373.72,128.89a29.24,29.24,0,0,0-.7,5.1c-.12,1.77-.14,3.54-.13,5.31,0,.1.16.09.16,0,0-1.74.12-3.48.27-5.21s.43-3.45.52-5.18C373.85,128.83,373.74,128.83,373.72,128.89Z" style="fill: rgb(38, 50, 56); transform-origin: 373.364px 134.109px;" id="eldjcyukpxcv" class="animable"/><path d="M397.68,150.41h0" style="fill: none; stroke: rgb(245, 167, 158); stroke-linecap: round; stroke-linejoin: round; stroke-width: 0px; transform-origin: 397.68px 150.41px;" id="elf2ujtdy4k16" class="animable"/><path d="M385,133c0-.05.09.07.08.12-.26,1.23-.35,2.67.69,3.28,0,0,0,.08,0,.07C384.44,136,384.58,134.08,385,133Z" style="fill: rgb(38, 50, 56); transform-origin: 385.238px 134.729px;" id="elplae80psia" class="animable"/><path d="M386.36,131.87c2,.21,1.44,4.2-.42,4S384.67,131.7,386.36,131.87Z" style="fill: rgb(38, 50, 56); transform-origin: 386.206px 133.871px;" id="el8mttbo739df" class="animable"/><path d="M378.16,132.19c0-.05-.11,0-.11.09-.14,1.25-.5,2.65-1.68,2.91,0,0,0,.07,0,.07C377.77,135.25,378.23,133.39,378.16,132.19Z" style="fill: rgb(38, 50, 56); transform-origin: 377.268px 133.715px;" id="elp9iwiwaop2r" class="animable"/><path d="M377.23,130.74c-2-.43-2.68,3.54-.86,3.94S378.88,131.1,377.23,130.74Z" style="fill: rgb(38, 50, 56); transform-origin: 376.738px 132.708px;" id="elvawnalp03vj" class="animable"/><path d="M388.19,130.26a14.55,14.55,0,0,1-1.47-.76,2.72,2.72,0,0,1-1.36-1.06.86.86,0,0,1,.28-1,2.13,2.13,0,0,1,2.15.08,3.08,3.08,0,0,1,1.58,1.58A.91.91,0,0,1,388.19,130.26Z" style="fill: rgb(38, 50, 56); transform-origin: 387.362px 128.753px;" id="el0vol71wrva8" class="animable"/><path d="M376,128.51a15.26,15.26,0,0,0,1.64-.19,2.72,2.72,0,0,0,1.65-.51.87.87,0,0,0,.09-1,2.12,2.12,0,0,0-2-.69,3.11,3.11,0,0,0-2.05.92A.91.91,0,0,0,376,128.51Z" style="fill: rgb(38, 50, 56); transform-origin: 377.317px 127.296px;" id="elnpo047e3cf8" class="animable"/><path d="M384.9,144.64c-.34.25-.69.61-1.15.59a3.47,3.47,0,0,1-1.29-.5s-.08,0-.06.05a1.68,1.68,0,0,0,1.48.9,1.35,1.35,0,0,0,1.13-1C385,144.65,384.94,144.61,384.9,144.64Z" style="fill: rgb(38, 50, 56); transform-origin: 383.703px 145.155px;" id="elqt53l5mydvq" class="animable"/><path d="M384.11,140.75a4.25,4.25,0,0,1-3.08,1.49,5.6,5.6,0,0,1-1.52-.14l-.29-.08a1.29,1.29,0,0,1-.26-.08.29.29,0,0,1-.21-.31h0a.53.53,0,0,1,0-.12h0l0-.11c.1-1,.4-2.4.4-2.4-.37.13-2.26.68-2.16.19a64,64,0,0,1,3.41-12.54c.05-.13.26-.07.23.06-.64,4-2,7.79-2.67,11.76a7.35,7.35,0,0,1,2.08-.33c.13.06-.62,2.77-.64,3.21v0a5.88,5.88,0,0,0,4.55-.74C384.11,140.57,384.2,140.67,384.11,140.75Z" style="fill: rgb(38, 50, 56); transform-origin: 380.566px 134.412px;" id="elkma4x19s29o" class="animable"/><path d="M380.14,141.69a5,5,0,0,0,1.78,1.83,2.25,2.25,0,0,0,1.36.28c1-.12,1.18-1,1.1-1.83a5.16,5.16,0,0,0-.27-1.25A6.57,6.57,0,0,1,380.14,141.69Z" style="fill: rgb(38, 50, 56); transform-origin: 382.268px 142.267px;" id="elj6iqa4tyy4s" class="animable"/><path d="M381.92,143.52a2.25,2.25,0,0,0,1.36.28c1-.12,1.18-1,1.1-1.83A2.35,2.35,0,0,0,381.92,143.52Z" style="fill: rgb(255, 152, 185); transform-origin: 383.158px 142.885px;" id="elpogifx1v9ck" class="animable"/><path d="M401.71,136.74c-2.09.3-3.45-6.06-3.74-8.48-.26-2.12.09-8.68.06-9.14s-9.6,4.36-14.41,2.1-7.46-7.31-7.2-9.43,7.35-6.49,12.8-5.92,11.7,8.59,11.7,8.59a25.76,25.76,0,0,1-1.9-3.59c.13-.23,3.4,1.71,3.66,4.3,0,0-.21-3.23.07-3.25s2.57,3.09,1.64,5c0,0,2.71,3.21,2.54,6.24S404.17,136.39,401.71,136.74Z" style="fill: rgb(38, 50, 56); transform-origin: 391.67px 121.285px;" id="el0ik9ky5ptpap" class="animable"/><path d="M380.21,119.61a17.16,17.16,0,0,0,4.49,2.44,11.41,11.41,0,0,0,5.57,0,17.47,17.47,0,0,0,5.2-2.07c1.42-.84,2.73-1.92,4.22-2.63.37-.18.69.36.43.64a18.27,18.27,0,0,1-10.19,5.3,10.49,10.49,0,0,1-9.74-3.63S380.19,119.59,380.21,119.61Z" style="fill: rgb(38, 50, 56); transform-origin: 390.202px 120.37px;" id="elkd4yvm7ycfk" class="animable"/><path d="M385.78,138.9a5.37,5.37,0,0,1-3.78-6.56h0a5.35,5.35,0,1,1,5.1,6.74A5,5,0,0,1,385.78,138.9Zm-3.09-6.38a4.64,4.64,0,1,0,5.69-3.27,5.14,5.14,0,0,0-1.15-.16A4.65,4.65,0,0,0,382.69,132.52Z" style="fill: #407BFF; transform-origin: 387.168px 133.73px;" id="el7spbu9cl04v" class="animable"/><path d="M374.58,137.4c-2.18-.29-3.64-2.9-3.26-5.83a6.31,6.31,0,0,1,1.61-3.56,3.33,3.33,0,0,1,5.66.74,6.37,6.37,0,0,1,.63,3.86c-.36,2.77-2.24,4.84-4.29,4.81Zm-1.13-8.9a5.66,5.66,0,0,0-1.42,3.17c-.33,2.53.85,4.78,2.64,5s3.51-1.64,3.85-4.18a5.72,5.72,0,0,0-.56-3.42,2.85,2.85,0,0,0-2.09-1.6l-.27,0A2.94,2.94,0,0,0,373.45,128.5Z" style="fill: #407BFF; transform-origin: 375.276px 132.086px;" id="elsyhai7z31c" class="animable"/><path d="M382.1,133l.53-.49c-.72-.78-2.46-1.93-3.94-.71l.45.55C380.47,131.23,382,132.91,382.1,133Z" style="fill: #407BFF; transform-origin: 380.66px 132.133px;" id="el9dn0vq344id" class="animable"/><path d="M405.57,137.44l.68-.24c-.12-.32-1.16-3.08-2.71-3.55s-11.08-.78-11.49-.8l0,.72c2.76.1,10.19.43,11.3.77S405.3,136.68,405.57,137.44Z" style="fill: #407BFF; transform-origin: 399.15px 135.145px;" id="eljfkd6gf9iu" class="animable"/><path d="M399.25,136.81s4.26-5.81,6.91-4.28-.65,10-3.82,11.13a3.2,3.2,0,0,1-4.25-1.82Z" style="fill: rgb(235, 148, 129); transform-origin: 402.609px 138.095px;" id="el95y4lo3mt3" class="animable"/><path d="M405.16,134.94a0,0,0,0,1,0,.08c-2.22.85-3.43,2.87-4.29,5a1.76,1.76,0,0,1,2.65-.42c.06,0,0,.13-.06.11a2,2,0,0,0-2.18.64,10.66,10.66,0,0,0-1.08,1.73c-.1.2-.46.08-.38-.14l0,0C399.86,139,402.13,135.16,405.16,134.94Z" style="fill: rgb(38, 50, 56); transform-origin: 402.484px 138.561px;" id="elzrbkk0g3f9j" class="animable"/><path d="M406.63,132.6a2.26,2.26,0,0,0-2.12-.3c-.1,0-.11.09,0,.06a2.27,2.27,0,0,1,1.29,0c.35.11,1.34.52,1.33,2.59a13.42,13.42,0,0,1-1.33,4.7c0,.05.06.1.09.05a15.31,15.31,0,0,0,1.16-2.89C407.33,135.69,407.7,133.51,406.63,132.6Z" style="fill: rgb(38, 50, 56); transform-origin: 405.889px 135.941px;" id="elejj715ne6d" class="animable"/><path d="M400.67,163.07c-.71.79-1.34,1.62-2.09,2.37a30.49,30.49,0,0,1-2.38,2.16A29.11,29.11,0,0,1,391,171a10.44,10.44,0,0,1-6.35,1.42,5.6,5.6,0,0,1-4.38-3.77c-.93-2.5-.3-5.16.31-7.78,0-.09-.12-.13-.15,0-.69,2.69-1.21,4.9-.74,7.43a6,6,0,0,0,3.47,4.55c4.43,1.84,9.15-1.35,12.43-4.08a31.55,31.55,0,0,0,2.73-2.57,22.52,22.52,0,0,0,2.5-3C400.85,163.08,400.73,163,400.67,163.07Z" style="fill: rgb(38, 50, 56); transform-origin: 390.167px 167.091px;" id="el3uaj8xmrvsq" class="animable"/></g><g id="freepik--Table--inject-202" class="animable" style="transform-origin: 258px 356.025px;"><rect x="78.73" y="260.2" width="358.54" height="12.75" style="fill: rgb(55, 71, 79); transform-origin: 258px 266.575px;" id="elumk4yzqh9u" class="animable"/><rect x="78.73" y="267.97" width="358.54" height="4.98" style="fill: rgb(69, 90, 100); transform-origin: 258px 270.46px;" id="elt1xwaiab4x" class="animable"/><polygon points="91.59 451.85 86.44 451.85 101.44 272.95 114.59 272.95 91.59 451.85" style="fill: rgb(69, 90, 100); transform-origin: 100.515px 362.4px;" id="el6i0ci4egxkc" class="animable"/><polygon points="114.59 272.95 113.05 284.92 100.44 284.92 101.44 272.95 114.59 272.95" style="fill: rgb(38, 50, 56); transform-origin: 107.515px 278.935px;" id="el8vq24gsrncf" class="animable"/><polygon points="424.41 451.85 429.56 451.85 414.56 272.95 401.41 272.95 424.41 451.85" style="fill: rgb(69, 90, 100); transform-origin: 415.485px 362.4px;" id="elqq4oicdi46a" class="animable"/><polygon points="401.41 272.95 402.95 284.92 415.56 284.92 414.56 272.95 401.41 272.95" style="fill: rgb(38, 50, 56); transform-origin: 408.485px 278.935px;" id="elbwz47ne82bv" class="animable"/></g><g id="freepik--Device--inject-202" class="animable" style="transform-origin: 284.44px 218.495px;"><polygon points="300.33 260.19 355.72 260.19 355.72 255.88 300.33 254.09 300.33 260.19" style="fill: rgb(69, 90, 100); transform-origin: 328.025px 257.14px;" id="elylo924hfhy" class="animable"/><path d="M256.79,260.11h36.55c3.12,0-1.4-8.88-12.78-12.28S253.21,256.78,256.79,260.11Z" style="fill: rgb(55, 71, 79); transform-origin: 275.29px 253.677px;" id="eljfxk5513lad" class="animable"/><path d="M271.13,260.11a26.77,26.77,0,0,0-2.38-5.36,14.4,14.4,0,0,0-1.7-2.32,19,19,0,0,0-2.15-2,7.29,7.29,0,0,1,2.69,1.46,9.31,9.31,0,0,1,2,2.37,11.16,11.16,0,0,1,1.21,2.85A8.88,8.88,0,0,1,271.13,260.11Z" style="fill: rgb(38, 50, 56); transform-origin: 268.023px 255.27px;" id="elxhdgudo0vj" class="animable"/><path d="M266.8,251.66c-1.92,1.25-3.84,2.37-5.64,3.66a20.54,20.54,0,0,0-2.54,2.08,7.19,7.19,0,0,0-1.83,2.71,5.05,5.05,0,0,1,1.25-3.22,11.94,11.94,0,0,1,2.54-2.38,19.3,19.3,0,0,1,3-1.72A16.07,16.07,0,0,1,266.8,251.66Z" style="fill: rgb(38, 50, 56); transform-origin: 261.795px 255.885px;" id="ellgy4mygdfxm" class="animable"/><polygon points="230.57 242.92 319.4 242.92 305.28 176.79 216.44 176.79 230.57 242.92" style="fill: rgb(69, 90, 100); transform-origin: 267.92px 209.855px;" id="elwrgh64xqt9" class="animable"/><polygon points="227.29 242.92 316.12 242.92 301.99 176.79 213.16 176.79 227.29 242.92" style="fill: rgb(55, 71, 79); transform-origin: 264.64px 209.855px;" id="elk1j4ojvg81c" class="animable"/><polygon points="275.2 219.21 277.28 219.21 274.12 204.38 272.04 204.38 275.2 219.21" style="fill: rgb(38, 50, 56); transform-origin: 274.66px 211.795px;" id="ely87qa2jambq" class="animable"/><polygon points="271.09 219.21 273.17 219.21 270.01 204.38 267.92 204.38 271.09 219.21" style="fill: rgb(38, 50, 56); transform-origin: 270.545px 211.795px;" id="elsf79l4nrnkg" class="animable"/><polygon points="266.98 219.21 269.06 219.21 265.9 204.38 263.81 204.38 266.98 219.21" style="fill: rgb(38, 50, 56); transform-origin: 266.435px 211.795px;" id="elh3e0zebgnfi" class="animable"/><polygon points="262.87 219.21 264.95 219.21 261.79 204.38 259.7 204.38 262.87 219.21" style="fill: rgb(38, 50, 56); transform-origin: 262.325px 211.795px;" id="elfk0e5mwnwft" class="animable"/><polygon points="258.75 219.21 260.84 219.21 257.68 204.38 255.59 204.38 258.75 219.21" style="fill: rgb(38, 50, 56); transform-origin: 258.215px 211.795px;" id="elkdhyvs0orn9" class="animable"/><polygon points="254.64 219.21 256.73 219.21 253.56 204.38 251.48 204.38 254.64 219.21" style="fill: rgb(38, 50, 56); transform-origin: 254.105px 211.795px;" id="elw9m86umy5z" class="animable"/><polygon points="250.53 219.21 252.62 219.21 249.45 204.38 247.37 204.38 250.53 219.21" style="fill: rgb(38, 50, 56); transform-origin: 249.995px 211.795px;" id="el1g1ndk7fkro" class="animable"/><polygon points="252.41 260.2 296.1 260.2 296.1 256.8 252.41 255.39 252.41 260.2" style="fill: rgb(69, 90, 100); transform-origin: 274.255px 257.795px;" id="els9lhvp2uqsb" class="animable"/><polygon points="240.53 260.19 263.99 260.19 278.12 223.13 254.66 223.13 240.53 260.19" style="fill: rgb(69, 90, 100); transform-origin: 259.325px 241.66px;" id="elu0dok3o1tl" class="animable"/><polygon points="236.67 260.19 260.13 260.19 274.25 223.13 250.8 223.13 236.67 260.19" style="fill: rgb(38, 50, 56); transform-origin: 255.46px 241.66px;" id="elkuslvd6km8q" class="animable"/></g><g id="freepik--Shield--inject-202" class="animable animator-hidden" style="transform-origin: 195.135px 146.275px;"><path d="M232.4,123.66S227,167.25,218,177.06c-10.74,11.76-18.53,10-22.87,16.11a0,0,0,0,0,0,0c-4.33-6.08-12.13-4.35-22.88-16.12-9-9.81-14.38-53.4-14.38-53.4,23.58-11.44,37.26-24.27,37.26-24.27h0C195.55,99.79,209.18,112.4,232.4,123.66Z" style="fill: #407BFF; transform-origin: 195.135px 146.275px;" id="elqdztmp4mgeb" class="animable"/><g id="elgo9xb5oxm6l"><path d="M195.13,99.4v93.77a0,0,0,0,0,0,0c-4.33-6.08-12.13-4.35-22.88-16.12-9-9.81-14.38-53.4-14.38-53.4,23.58-11.44,37.26-24.27,37.26-24.27Z" style="opacity: 0.2; transform-origin: 176.5px 146.275px;" class="animable" id="el8ey0aydqwnd"/></g><g id="ell2xtfkq76b"><path d="M232.4,123.66S227,167.25,218,177.06c-10.74,11.76-18.53,10-22.87,16.11V99.4C195.55,99.79,209.18,112.4,232.4,123.66Z" style="opacity: 0.1; transform-origin: 213.765px 146.285px;" class="animable" id="elxeauyks0qzs"/></g><path d="M226.61,127.17S222,164,214.46,172.28c-9.08,10-15.67,8.49-19.34,13.62-3.66-5.13-10.25-3.66-19.33-13.62-7.56-8.29-12.15-45.11-12.15-45.11,19.92-9.67,31.48-20.5,31.48-20.5S206.7,117.5,226.61,127.17Z" style="fill: #407BFF; transform-origin: 195.125px 146.285px;" id="el7lhw584ejte" class="animable"/><rect x="185.68" y="141.06" width="18.89" height="17.14" style="fill: rgb(255, 255, 255); transform-origin: 195.125px 149.63px;" id="elwv7yltenua" class="animable"/><path d="M202.68,146.34h-1.92v-7.65a5.64,5.64,0,0,0-11.27,0v7.65h-1.92v-7.65a7.56,7.56,0,0,1,15.11,0Z" style="fill: rgb(255, 255, 255); transform-origin: 195.125px 138.873px;" id="elses3fzndhm" class="animable"/><path d="M195.93,149.84l.79,3.75h-3.36l.79-3.75a1.68,1.68,0,1,1,1.78,0Z" style="fill: rgb(55, 71, 79); transform-origin: 195.04px 150.163px;" id="elaysgk9a5n7b" class="animable"/></g><g id="freepik--Letter--inject-202" class="animable" style="transform-origin: 110.51px 213.5px;"/><g id="freepik--Password--inject-202" class="animable animator-hidden" style="transform-origin: 122.77px 159.69px;"><rect x="82.34" y="152.73" width="91.82" height="13.92" style="fill: rgb(255, 255, 255); transform-origin: 128.25px 159.69px;" id="el7vdwj9yap2m" class="animable"/><path d="M174.65,167.15H81.84V152.23h92.81Zm-91.81-1h90.81V153.23H82.84Z" style="fill: rgb(235, 235, 235); transform-origin: 128.245px 159.69px;" id="elh0vqolwedpm" class="animable"/><circle cx="79.89" cy="159.69" r="9" style="fill: rgb(55, 71, 79); transform-origin: 79.89px 159.69px;" id="elx7esoyok6nh" class="animable"/><rect x="75.43" y="157.41" width="8.92" height="8.1" style="fill: rgb(255, 255, 255); transform-origin: 79.89px 161.46px;" id="el8ameubsa3ef" class="animable"/><path d="M83.46,159.91h-.91V156.3a2.66,2.66,0,1,0-5.32,0v3.61h-.91V156.3a3.57,3.57,0,1,1,7.14,0Z" style="fill: rgb(255, 255, 255); transform-origin: 79.89px 156.318px;" id="ellra3sx4s5o" class="animable"/><path d="M80.27,161.56l.37,1.78H79.05l.38-1.78a.77.77,0,0,1-.38-.67.8.8,0,0,1,1.59,0A.79.79,0,0,1,80.27,161.56Z" style="fill: rgb(55, 71, 79); transform-origin: 79.845px 161.76px;" id="elaqjzmfrnirq" class="animable"/><rect x="97.26" y="156.73" width="1" height="6.37" style="fill: rgb(55, 71, 79); transform-origin: 97.76px 159.915px;" id="elw9ig97yf8y" class="animable"/><rect x="94.57" y="159.41" width="6.37" height="1" style="fill: rgb(55, 71, 79); transform-origin: 97.755px 159.91px;" id="elilzzzrkwl" class="animable"/><g id="elobom67q0my"><rect x="94.57" y="159.41" width="6.37" height="1" style="fill: rgb(55, 71, 79); transform-origin: 97.755px 159.91px; transform: rotate(-45deg);" class="animable" id="elra2jed8t3yh"/></g><g id="eldez3gzbn1fu"><rect x="97.26" y="156.73" width="1" height="6.37" style="fill: rgb(55, 71, 79); transform-origin: 97.76px 159.915px; transform: rotate(-45deg);" class="animable" id="eljim97oyxkb"/></g><rect x="108.07" y="156.73" width="1" height="6.37" style="fill: rgb(55, 71, 79); transform-origin: 108.57px 159.915px;" id="elgphvj18iyf" class="animable"/><rect x="105.39" y="159.41" width="6.37" height="1" style="fill: rgb(55, 71, 79); transform-origin: 108.575px 159.91px;" id="el2jax3v3uqsk" class="animable"/><g id="elevlyiydu4lw"><rect x="105.39" y="159.41" width="6.37" height="1" style="fill: rgb(55, 71, 79); transform-origin: 108.575px 159.91px; transform: rotate(-45deg);" class="animable" id="elb6ioz6vr5ab"/></g><g id="elvktk8to7ec"><rect x="108.07" y="156.73" width="1" height="6.37" style="fill: rgb(55, 71, 79); transform-origin: 108.57px 159.915px; transform: rotate(-45deg);" class="animable" id="elhcxgmj1hwec"/></g><rect x="118.89" y="156.73" width="1" height="6.37" style="fill: rgb(55, 71, 79); transform-origin: 119.39px 159.915px;" id="elmp3jlv67lof" class="animable"/><rect x="116.2" y="159.41" width="6.37" height="1" style="fill: rgb(55, 71, 79); transform-origin: 119.385px 159.91px;" id="el6gqj2z39b0a" class="animable"/><g id="elhlcxzkvsxi"><rect x="116.2" y="159.41" width="6.37" height="1" style="fill: rgb(55, 71, 79); transform-origin: 119.385px 159.91px; transform: rotate(-45deg);" class="animable" id="elbro1yv5zkx5"/></g><g id="elwill1irmtw"><rect x="118.89" y="156.73" width="1" height="6.37" style="fill: rgb(55, 71, 79); transform-origin: 119.39px 159.915px; transform: rotate(-45deg);" class="animable" id="elv6vuxzu0cjo"/></g><rect x="129.71" y="156.73" width="1" height="6.37" style="fill: rgb(55, 71, 79); transform-origin: 130.21px 159.915px;" id="ela5qjdeufngt" class="animable"/><rect x="127.02" y="159.41" width="6.37" height="1" style="fill: rgb(55, 71, 79); transform-origin: 130.205px 159.91px;" id="elkwa29wb1e8" class="animable"/><g id="el0ykiavkvz37"><rect x="127.02" y="159.41" width="6.37" height="1" style="fill: rgb(55, 71, 79); transform-origin: 130.205px 159.91px; transform: rotate(-45deg);" class="animable" id="el828ddtztfum"/></g><g id="el8u34hosf0k9"><rect x="129.71" y="156.73" width="1" height="6.37" style="fill: rgb(55, 71, 79); transform-origin: 130.21px 159.915px; transform: rotate(-45deg);" class="animable" id="eluxogjo3wqs"/></g><rect x="140.52" y="156.73" width="1" height="6.37" style="fill: rgb(55, 71, 79); transform-origin: 141.02px 159.915px;" id="eleti8i6u2iz" class="animable"/><rect x="137.84" y="159.41" width="6.37" height="1" style="fill: rgb(55, 71, 79); transform-origin: 141.025px 159.91px;" id="el0bkls6k46fpj" class="animable"/><g id="el9yb7sfxfmks"><rect x="137.84" y="159.41" width="6.37" height="1" style="fill: rgb(55, 71, 79); transform-origin: 141.025px 159.91px; transform: rotate(-45deg);" class="animable" id="eljon0bj0kxe8"/></g><g id="elf6hdn9szds"><rect x="140.52" y="156.73" width="1" height="6.37" style="fill: rgb(55, 71, 79); transform-origin: 141.02px 159.915px; transform: rotate(-45deg);" class="animable" id="elwkks4s9c5p"/></g><rect x="151.34" y="156.73" width="1" height="6.37" style="fill: rgb(55, 71, 79); transform-origin: 151.84px 159.915px;" id="elll7feltnmqq" class="animable"/><rect x="148.65" y="159.41" width="6.37" height="1" style="fill: rgb(55, 71, 79); transform-origin: 151.835px 159.91px;" id="el8xklt8ulkrc" class="animable"/><g id="el220cppb6n3e"><rect x="148.65" y="159.41" width="6.37" height="1" style="fill: rgb(55, 71, 79); transform-origin: 151.835px 159.91px; transform: rotate(-45deg);" class="animable" id="elj2lc72miail"/></g><g id="eld4rvcoge1ja"><rect x="151.34" y="156.73" width="1" height="6.37" style="fill: rgb(55, 71, 79); transform-origin: 151.84px 159.915px; transform: rotate(-45deg);" class="animable" id="el0hu0qux3l5bm"/></g></g><g id="freepik--Plant--inject-202" class="animable" style="transform-origin: 107.36px 358.73px;"><path d="M96.55,373.91s-22.17-5-34.32-16.22S43.3,326.44,43.3,326.44A191,191,0,0,1,68.16,333c2,2.12,5.76,6.49,7.52,10.63a51.65,51.65,0,0,0,.06-7.6,34,34,0,0,1,7.89,4.79C93.7,349.61,96.55,373.91,96.55,373.91Z" style="fill: #4caf50;transform-origin: 69.925px 350.175px;" id="eld3ky4wl2mz" class="animable"/><path d="M57.14,336.19c-3-2.1-6.1-4.11-9.11-6.22a.18.18,0,0,1,.18-.3c5.71,3.41,11.35,7.06,16.79,10.88,1.9,1.33,3.77,2.72,5.61,4.13l-.38-.66c-.67-1.11-1.37-2.2-2.07-3.29a46.65,46.65,0,0,0-4.71-6.29c-.06-.07,0-.17.11-.1,1.73,2,3.45,4,5,6.07.75,1,1.44,2,2.1,3.11.35.55.68,1.11,1,1.67l.33.57c2.87,2.25,5.66,4.6,8.32,7.08,1.65,1.54,3.23,3.12,4.76,4.76-.85-2.68-1.6-5.39-2.6-8,0-.09.12-.12.15,0,1,2.77,2,5.55,2.77,8.4q2.55,2.74,4.85,5.71c0-.12,0-.24-.08-.36-.25-1-.51-2.09-.79-3.12-.54-2-1.13-4-1.81-6a34.43,34.43,0,0,0-6-11.24c-.06-.08,0-.18.11-.11,4.33,5.13,6.87,11.28,8.49,17.73.23.95.46,1.89.67,2.84.12.5.25,1,.34,1.53.67.91,1.32,1.82,2,2.76a96,96,0,0,1,9.38,18.4,211.28,211.28,0,0,1,7.11,22.14c0,.15-.18.2-.23.06-4.34-13-8.76-26.13-16.19-37.72a86,86,0,0,0-5.06-7.09,41.82,41.82,0,0,1-10.78-2.14,48.07,48.07,0,0,1-10.8-5.22A68.07,68.07,0,0,1,61.09,352a.08.08,0,1,1,.1-.12A44,44,0,0,0,71.35,358a55.68,55.68,0,0,0,11.18,3.75c1.64.36,3.3.62,5,.85A95.49,95.49,0,0,0,81,355.33c-.75-.74-1.52-1.46-2.29-2.18a52,52,0,0,0-8.2-4.69c-3.63-1.76-7.2-3.62-10.8-5.45-2-1-4-2.09-6.09-3.08-.08-.05,0-.17.08-.13,3.65,1.76,7.35,3.4,11,5.09,3.47,1.58,7,3.17,10.29,5l.42.25q-4.51-3.92-9.29-7.51C63.15,340.45,60.17,338.28,57.14,336.19Z" style="fill: rgb(38, 50, 56); transform-origin: 78.8182px 369.042px;" id="elask024xo0qr" class="animable"/><path d="M58.4,347.61c1.8.79,3.64,1.49,5.42,2.33s3.57,1.86,5.32,2.89c.07.05,0,.15-.08.12-1.76-.85-3.55-1.64-5.3-2.52s-3.57-1.87-5.41-2.67C58.27,347.72,58.31,347.57,58.4,347.61Z" style="fill: rgb(38, 50, 56); transform-origin: 63.7378px 350.279px;" id="el9lct2fclzoa" class="animable"/><path d="M168.56,262.2a31.65,31.65,0,0,0-6.62,18.41c-.08,2,.24,4.75.47,8C154.14,293,147.94,301,147.94,301c4.7-2.82,11.14-4,14.62-3.5a43.49,43.49,0,0,1-.85,6.62c-1.53-.09-4.5.12-9.4,1.86a21.14,21.14,0,0,1,8.48,1.68c-3.95,12.58-15.7,25.49-48.13,31A68.07,68.07,0,0,1,118.4,293C128.12,273.87,168.56,262.2,168.56,262.2Z" style="fill: #4caf50;transform-origin: 139.791px 300.43px;" id="elay7pacxzr2b" class="animable"/><path d="M101.43,392.42q.84-8.06,2.1-16.07a320.67,320.67,0,0,1,6.54-31.74,127.84,127.84,0,0,1,4.68-14.47,20.48,20.48,0,0,1-.11-2.6c0-1,0-2.08,0-3.11q0-3.12.3-6.23a74.84,74.84,0,0,1,2-12.16c.59-2.31,1.28-4.58,2-6.87,0-.09.17-.05.14,0a91.09,91.09,0,0,0-2.39,12.14,115.27,115.27,0,0,0-1.09,12.18c0,1.11-.06,2.22-.06,3.34,0,.47,0,.95,0,1.43A102.21,102.21,0,0,1,121,317a138.81,138.81,0,0,1,11.1-16.61,7,7,0,0,1,.27-1.81c.15-.73.31-1.45.47-2.17.33-1.48.7-3,1.11-4.42.8-2.94,1.87-5.78,2.79-8.68,0-.1.17-.05.14,0-.86,2.87-1.43,5.85-2.08,8.77-.33,1.45-.64,2.9-1,4.35-.16.72-.32,1.44-.47,2.17l0,.16c1.31-1.65,2.65-3.29,4-4.89,6.19-7.26,13-14,19.82-20.61.84-.82,1.7-1.62,2.55-2.43a.08.08,0,0,1,.11.11c-6.53,6.82-13,13.71-19.06,20.92-1.44,1.72-2.87,3.45-4.27,5.21.74-.5,1.48-1,2.21-1.46,1.89-1.24,3.8-2.44,5.77-3.54s3.95-2.18,6-3.19,4.31-1.87,6.31-3c.09-.05.16.09.08.13a46.16,46.16,0,0,0-5.92,3.28c-2,1.17-4,2.35-5.89,3.58s-3.82,2.4-5.71,3.63c-1.58,1-3.13,2.14-4.77,3.09a154,154,0,0,0-10.39,15.12,111.4,111.4,0,0,0-5.37,10.19l1.16-.5,3-1.32c1.91-.85,3.83-1.68,5.74-2.51,3.64-1.58,7.33-3,10.9-4.77a49.26,49.26,0,0,0,5.82-3.23c.08-.06.15.07.08.13-6.65,4.58-14.11,7.81-21.47,11.07l-3.19,1.41c-.88.39-1.76.82-2.66,1.16a114.82,114.82,0,0,0-5.49,15,306.47,306.47,0,0,0-7,31.38c-1.86,10.59-3.12,21.26-4.09,32-.13,1.34-.25,2.67-.4,4a.42.42,0,0,1-.84,0C100.31,403.27,100.86,397.82,101.43,392.42Z" style="fill: rgb(38, 50, 56); transform-origin: 130.089px 339.978px;" id="elan1wdcmpl7c" class="animable"/><path d="M121.16,302.85c.6-3.3,1.48-6.52,2.37-9.75,0-.1.16-.05.14,0-.82,3.17-1.41,6.4-2,9.62s-1.15,6.57-1.61,9.87c0,.05-.09.06-.09,0A88.81,88.81,0,0,1,121.16,302.85Z" style="fill: rgb(38, 50, 56); transform-origin: 121.821px 302.837px;" id="elxj860oonye" class="animable"/><path d="M135.14,311.79a57.5,57.5,0,0,1,7.06-4c1.18-.61,2.38-1.19,3.57-1.77s2.52-1.1,3.74-1.71a.08.08,0,0,1,.08.13c-1.19.59-2.31,1.31-3.48,1.95s-2.39,1.32-3.6,2c-2.37,1.27-4.7,2.68-7.19,3.72A.18.18,0,0,1,135.14,311.79Z" style="fill: rgb(38, 50, 56); transform-origin: 142.328px 308.22px;" id="eluzqoelhr3oj" class="animable"/><g id="elq4a0jgf5pgm"><path d="M96.15,335.51s-20.52-4.9-29.93-18.66c-9-13.14-11.91-35.54-12.14-37.51.37,1.8,4.61,21.38,18.57,30.5C83.34,316.83,93.67,322.57,96.15,335.51Z" style="fill: rgb(38, 50, 56); opacity: 0.1; transform-origin: 75.115px 307.425px;" class="animable" id="elluitpgow9km"/></g><path d="M77.21,300.07a26.21,26.21,0,0,1,7.57,12.45,0,0,0,0,1-.07,0,30.51,30.51,0,0,0-7.6-12.37C77,300.11,77.14,300,77.21,300.07Z" style="fill: rgb(38, 50, 56); transform-origin: 80.9246px 306.284px;" id="el549h6zomrko" class="animable"/><path d="M96.15,335.51s-20.52-4.9-29.93-18.66c-9-13.14-11.91-35.54-12.14-37.51a.84.84,0,0,1,0-.14s9.84,14,20.18,17.55S99.11,312.65,96.15,335.51Z" style="fill: #4caf50;transform-origin: 75.3088px 307.355px;" id="elutb0rce6b9" class="animable"/><path d="M57.7,286.91A82.73,82.73,0,0,0,64,297.75a43.66,43.66,0,0,0,8.43,8.69c2.79,2.21,5.74,4.22,8.56,6.38l-.07-.1c-.53-.78-1.09-1.55-1.68-2.29-1.17-1.5-2.45-2.92-3.75-4.32-2.54-2.77-5.15-5.48-7.43-8.47a30.82,30.82,0,0,1-3.29-5.3c0-.09.1-.14.14,0,3.33,6.93,10,11.37,14.72,17.22a31.89,31.89,0,0,1,1.89,2.6,10.86,10.86,0,0,1,1.18,2.08,43.35,43.35,0,0,1,7,7.07,28.39,28.39,0,0,0-.82-4,20.06,20.06,0,0,0-2.18-5.19c0-.08.08-.17.13-.09a24.74,24.74,0,0,1,2.39,5.17A18.1,18.1,0,0,1,90,321.6h0a40.49,40.49,0,0,1,2.77,4.31c-.09-.44-.17-.88-.26-1.32-.4-2-.85-4.08-1.38-6.09A36.58,36.58,0,0,0,86.21,307a.08.08,0,0,1,.13-.08,44,44,0,0,1,5.46,11.3c.66,2,1.18,4.06,1.64,6.13.23,1,.43,2,.62,3,.1.52.22,1.06.3,1.6a73.26,73.26,0,0,1,4.73,13.9,203.28,203.28,0,0,1,4.38,25.94,216.58,216.58,0,0,1,1.41,27.54c0,1.15-.08,2.3-.15,3.46,0,.29-.46.34-.47,0-.2-4.55-.32-9.1-.59-13.65s-.67-9.09-1.15-13.63A242.43,242.43,0,0,0,98.24,346c-1.66-7.5-3.82-15.05-7.92-21.62a40.74,40.74,0,0,0-7.4-8.8c-2.87-2.58-6-4.84-9-7.23a49.5,49.5,0,0,1-8.31-8A64.92,64.92,0,0,1,59,289.77c-.48-.93-1-1.85-1.47-2.78C57.52,286.91,57.65,286.83,57.7,286.91Z" style="fill: rgb(38, 50, 56); transform-origin: 81.2133px 343.452px;" id="el6r41bqinmht" class="animable"/><path d="M61.24,289.92a67.25,67.25,0,0,0,4.57,8c0,.06-.06.12-.1.06a55.76,55.76,0,0,1-4.62-8C61.05,289.88,61.19,289.83,61.24,289.92Z" style="fill: rgb(38, 50, 56); transform-origin: 63.4465px 293.939px;" id="elomsipaluibs" class="animable"/><path d="M171.42,326.44s.33,29.15-17.1,37.56-26.78,1.41-38.62,4.23l0,0c.46-.69,8.91-12.84,22.36-16.19C151.9,348.57,167.23,338.58,171.42,326.44Z" style="fill: #4caf50;transform-origin: 143.56px 347.376px;" id="el0rfwmsfm05u" class="animable"/><g id="elb8pprfdjhj7"><path d="M171.42,326.44s.33,29.15-17.1,37.56-26.78,1.41-38.62,4.23l0,0a66,66,0,0,1,19.82-5.84C146.53,361,167.52,353.88,171.42,326.44Z" style="opacity: 0.1; transform-origin: 143.56px 347.376px;" class="animable" id="el0eguo2pyk22d"/></g><path d="M114.55,368.75a29.31,29.31,0,0,1,6.93-4.7c.38-.18.76-.32,1.14-.48a7.63,7.63,0,0,1,.59-.67,20.15,20.15,0,0,1,1.64-1.56,24.14,24.14,0,0,1,3.5-2.53c2.89-1.7,6.06-2.89,9-4.46a.07.07,0,1,1,.07.13c-1.46.76-2.87,1.59-4.29,2.42s-2.79,1.58-4.14,2.44a29,29,0,0,0-3.45,2.59c-.3.27-.6.56-.89.86a45.61,45.61,0,0,1,5.89-1.57c3.19-.64,6.41-1.1,9.6-1.78a43.13,43.13,0,0,0,4.62-1.25c1.45-1.16,2.89-2.32,4.26-3.58a34.49,34.49,0,0,0,4.51-5c.06-.08.19,0,.13.08a53.43,53.43,0,0,1-7.15,7.89c.75-.29,1.5-.59,2.23-.93A36,36,0,0,0,163.6,344.3c.06-.08.19,0,.13.07a40.78,40.78,0,0,1-12,11.54,36.18,36.18,0,0,1-7.6,3.59,69.1,69.1,0,0,1-9.43,2.23,66.74,66.74,0,0,0-9.24,2.2,27.73,27.73,0,0,0-7.74,4.08A36.17,36.17,0,0,0,107.26,381c-3.3,6.61-4.87,14-5.75,21.31,0,.31-.52.31-.5,0C101.83,390,105.11,377.26,114.55,368.75Z" style="fill: rgb(38, 50, 56); transform-origin: 132.377px 373.405px;" id="el02ii4sqjfyne" class="animable"/><path d="M134.78,359.24a10.07,10.07,0,0,1,3.58-3.25,13.08,13.08,0,0,0,4.26-3.52c.06-.08.19,0,.13.08a14.4,14.4,0,0,1-3.76,3.37,13.06,13.06,0,0,0-4.1,3.39C134.84,359.38,134.73,359.31,134.78,359.24Z" style="fill: rgb(38, 50, 56); transform-origin: 138.766px 355.888px;" id="el0r19z66wizl" class="animable"/><polygon points="125.53 390.26 124.74 406.29 122.31 455.26 85.74 455.26 83.31 406.29 82.52 390.26 125.53 390.26" style="fill: rgb(55, 71, 79); transform-origin: 104.025px 422.76px;" id="elhvf87dudvoh" class="animable"/><polygon points="125.53 390.26 124.74 406.29 83.31 406.29 82.52 390.26 125.53 390.26" style="fill: rgb(38, 50, 56); transform-origin: 104.025px 398.275px;" id="el2y6xwteddah" class="animable"/><rect x="79.95" y="383.57" width="48.14" height="15.29" style="fill: rgb(55, 71, 79); transform-origin: 104.02px 391.215px;" id="els6024f7r7i" class="animable"/></g><defs>     <filter id="active" height="200%">         <feMorphology in="SourceAlpha" result="DILATED" operator="dilate" radius="2"/>                <feFlood flood-color="#32DFEC" flood-opacity="1" result="PINK"/>        <feComposite in="PINK" in2="DILATED" operator="in" result="OUTLINE"/>        <feMerge>            <feMergeNode in="OUTLINE"/>            <feMergeNode in="SourceGraphic"/>        </feMerge>    </filter>    <filter id="hover" height="200%">        <feMorphology in="SourceAlpha" result="DILATED" operator="dilate" radius="2"/>                <feFlood flood-color="#ff0000" flood-opacity="0.5" result="PINK"/>        <feComposite in="PINK" in2="DILATED" operator="in" result="OUTLINE"/>        <feMerge>            <feMergeNode in="OUTLINE"/>            <feMergeNode in="SourceGraphic"/>        </feMerge>            <feColorMatrix type="matrix" values="0   0   0   0   0                0   1   0   0   0                0   0   0   0   0                0   0   0   1   0 "/>    </filter></defs></svg>
